<svg width="57" height="39" viewBox="0 0 57 39" fill="none" xmlns="http://www.w3.org/2000/svg">
<rect x="0.935812" y="0.335714" width="55.7286" height="38.2714" rx="2.35" fill="white" stroke="#F3F3F3" stroke-width="0.671429"/>
<path d="M33.9475 25.3954H24.3052V8.18164H33.9475V25.3954Z" fill="#6C6BBD"/>
<path d="M24.9173 16.7888C24.9173 13.2969 26.5631 10.1864 29.1261 8.18192C27.2518 6.71613 24.8864 5.84124 22.3158 5.84124C16.2299 5.84124 11.2966 10.7425 11.2966 16.7888C11.2966 22.835 16.2299 27.7363 22.3158 27.7363C24.8864 27.7363 27.2518 26.8614 29.1261 25.3956C26.5631 23.3911 24.9173 20.2807 24.9173 16.7888Z" fill="#EB001B"/>
<path d="M46.9561 16.7888C46.9561 22.835 42.0228 27.7363 35.937 27.7363C33.3663 27.7363 31.0009 26.8614 29.126 25.3956C31.6897 23.3911 33.3355 20.2807 33.3355 16.7888C33.3355 13.2969 31.6897 10.1864 29.126 8.18192C31.0009 6.71613 33.3663 5.84124 35.937 5.84124C42.0228 5.84124 46.9561 10.7425 46.9561 16.7888Z" fill="#0099DF"/>
<path d="M37.2099 30.2606C37.3381 30.2606 37.5223 30.285 37.6632 30.34L37.467 30.9357C37.3325 30.8808 37.1979 30.8627 37.069 30.8627C36.6528 30.8627 36.4448 31.1299 36.4448 31.6102V33.2402H35.8079V30.3337H36.4384V30.6866C36.6038 30.4311 36.8427 30.2606 37.2099 30.2606Z" fill="#231F20"/>
<path d="M34.8572 30.9106H33.8167V32.2239C33.8167 32.5156 33.9204 32.7105 34.2392 32.7105C34.4046 32.7105 34.6127 32.6555 34.8018 32.5462L34.9854 33.087C34.7836 33.2269 34.4655 33.3125 34.1902 33.3125C33.437 33.3125 33.1742 32.9109 33.1742 32.2358V30.9106H32.5801V30.3329H33.1742V29.451H33.8167V30.3329H34.8572V30.9106Z" fill="#231F20"/>
<path fill-rule="evenodd" clip-rule="evenodd" d="M27.4991 30.2598C28.3196 30.2598 28.8829 30.8799 28.8892 31.7861C28.8892 31.8703 28.883 31.9484 28.8768 32.0271L28.8766 32.029H26.7039C26.7957 32.5517 27.1691 32.7403 27.579 32.7403C27.8726 32.7403 28.1851 32.6311 28.4296 32.4362L28.7421 32.9046C28.3869 33.2025 27.9833 33.3118 27.5426 33.3118C26.6668 33.3118 26.0425 32.7097 26.0425 31.7861C26.0425 30.8799 26.6422 30.2598 27.4991 30.2598ZM27.4872 30.8252C27.0339 30.8252 26.7774 31.1112 26.7095 31.5309H28.2278C28.1605 31.0806 27.8971 30.8252 27.4872 30.8252Z" fill="#231F20"/>
<path d="M31.6862 31.0748C31.5089 30.9649 31.1481 30.825 30.7746 30.825C30.4257 30.825 30.2176 30.953 30.2176 31.166C30.2176 31.3602 30.4376 31.4152 30.713 31.4514L31.0129 31.4938C31.6498 31.5857 32.0351 31.853 32.0351 32.3638C32.0351 32.9172 31.5454 33.3125 30.7011 33.3125C30.2232 33.3125 29.7825 33.1907 29.4336 32.9353L29.7335 32.4425C29.9479 32.6067 30.2667 32.7466 30.7074 32.7466C31.1418 32.7466 31.3744 32.6193 31.3744 32.3938C31.3744 32.2302 31.209 32.1383 30.8601 32.0903L30.5602 32.0479C29.9051 31.956 29.5499 31.6643 29.5499 31.1904C29.5499 30.6127 30.0277 30.2598 30.7683 30.2598C31.2336 30.2598 31.6561 30.3635 31.9615 30.564L31.6862 31.0748Z" fill="#231F20"/>
<path fill-rule="evenodd" clip-rule="evenodd" d="M40.1673 30.3793C39.974 30.3007 39.7638 30.2617 39.5368 30.2617C39.3097 30.2617 39.0995 30.3007 38.9062 30.3793C38.7128 30.4573 38.5467 30.5652 38.4066 30.7023C38.2665 30.8394 38.1565 31.0016 38.0766 31.1881C37.9967 31.3753 37.9568 31.5786 37.9568 31.7978C37.9568 32.0171 37.9967 32.2203 38.0766 32.4075C38.1565 32.5941 38.2665 32.7569 38.4066 32.894C38.5467 33.0311 38.7128 33.1383 38.9062 33.217C39.0995 33.2949 39.3097 33.3339 39.5368 33.3339C39.7638 33.3339 39.974 33.2949 40.1673 33.217C40.3607 33.1383 40.5282 33.0311 40.669 32.894C40.8105 32.7569 40.9205 32.5941 41.0004 32.4075C41.0803 32.2203 41.1202 32.0171 41.1202 31.7978C41.1202 31.5786 41.0803 31.3753 41.0004 31.1881C40.9205 31.0016 40.8105 30.8394 40.669 30.7023C40.5282 30.5652 40.3607 30.4573 40.1673 30.3793ZM39.1717 30.9306C39.2845 30.8854 39.4057 30.8624 39.5367 30.8624C39.6677 30.8624 39.7896 30.8854 39.9017 30.9306C40.0145 30.9766 40.1126 31.0406 40.1946 31.1227C40.278 31.2049 40.3424 31.3037 40.3901 31.4185C40.437 31.5334 40.4601 31.6601 40.4601 31.7979C40.4601 31.9364 40.437 32.0623 40.3901 32.1772C40.3424 32.292 40.278 32.3909 40.1946 32.473C40.1126 32.5551 40.0145 32.6192 39.9017 32.6651C39.7896 32.711 39.6677 32.7333 39.5367 32.7333C39.4057 32.7333 39.2845 32.711 39.1717 32.6651C39.0596 32.6192 38.9622 32.5551 38.8802 32.473C38.7982 32.3909 38.7337 32.292 38.6868 32.1772C38.6399 32.0623 38.6167 31.9364 38.6167 31.7979C38.6167 31.6601 38.6399 31.5334 38.6868 31.4185C38.7337 31.3037 38.7982 31.2049 38.8802 31.1227C38.9622 31.0406 39.0596 30.9766 39.1717 30.9306Z" fill="#231F20"/>
<path fill-rule="evenodd" clip-rule="evenodd" d="M25.3592 30.3348V31.7881V33.2413H24.7231V32.8885C24.5206 33.1502 24.2151 33.3144 23.7989 33.3144C22.9784 33.3144 22.3359 32.6755 22.3359 31.7881C22.3359 30.9 22.9784 30.2617 23.7989 30.2617C24.2151 30.2617 24.5206 30.426 24.7231 30.6877V30.3348H25.3592ZM23.878 30.8573C23.3273 30.8573 22.9903 31.277 22.9903 31.7879C22.9903 32.2987 23.3273 32.7177 23.878 32.7177C24.4042 32.7177 24.7595 32.3168 24.7595 31.7879C24.7595 31.2589 24.4042 30.8573 23.878 30.8573Z" fill="#231F20"/>
<path d="M21.7728 33.2402V31.416C21.7728 30.729 21.3321 30.2669 20.6223 30.2606C20.2488 30.2544 19.8628 30.3699 19.5937 30.7778C19.392 30.4555 19.0732 30.2606 18.6261 30.2606C18.3144 30.2606 18.0082 30.3518 17.7692 30.6921V30.3337H17.1331V33.2402H17.7756V31.629C17.7756 31.1244 18.0572 30.8564 18.4916 30.8564C18.9141 30.8564 19.1285 31.1299 19.1285 31.6227V33.2402H19.771V31.629C19.771 31.1244 20.0653 30.8564 20.4871 30.8564C20.9222 30.8564 21.1303 31.1299 21.1303 31.6227V33.2402H21.7728V33.2402Z" fill="#231F20"/>
</svg>
