<svg width="58" height="39" viewBox="0 0 58 39" fill="none" xmlns="http://www.w3.org/2000/svg">
<rect x="1.13552" y="0.335714" width="55.7286" height="38.2714" rx="2.35" fill="white" stroke="#F3F3F3" stroke-width="0.671429"/>
<path fill-rule="evenodd" clip-rule="evenodd" d="M21.463 30.0735V31.5113V32.9492H20.8335V32.6C20.6339 32.859 20.331 33.0215 19.9192 33.0215C19.1074 33.0215 18.4711 32.39 18.4711 31.5113C18.4711 30.6334 19.1074 30.0012 19.9192 30.0012C20.331 30.0012 20.6339 30.1637 20.8335 30.4226V30.0735H21.463ZM19.9975 30.5913C19.4527 30.5913 19.1192 31.0065 19.1192 31.512C19.1192 32.0174 19.4527 32.4327 19.9975 32.4327C20.5181 32.4327 20.8696 32.0353 20.8696 31.512C20.8696 30.9886 20.5181 30.5913 19.9975 30.5913ZM42.7335 31.512C42.7335 31.0065 43.0669 30.5913 43.6118 30.5913C44.1331 30.5913 44.4838 30.9886 44.4838 31.512C44.4838 32.0353 44.1331 32.4327 43.6118 32.4327C43.0669 32.4327 42.7335 32.0174 42.7335 31.512ZM45.0779 28.9187V31.5113V32.9492H44.4478V32.6C44.2481 32.859 43.9452 33.0215 43.5334 33.0215C42.7217 33.0215 42.0853 32.39 42.0853 31.5113C42.0853 30.6334 42.7217 30.0012 43.5334 30.0012C43.9452 30.0012 44.2481 30.1637 44.4478 30.4226V28.9187H45.0779ZM29.2761 30.5614C29.6816 30.5614 29.9422 30.8141 30.0088 31.259L28.5066 31.259C28.5738 30.8437 28.8276 30.5614 29.2761 30.5614ZM27.8467 31.5113C27.8467 30.6148 28.44 30.0012 29.2885 30.0012C30.0996 30.0012 30.6569 30.6148 30.6632 31.5113C30.6632 31.5954 30.6569 31.6739 30.6507 31.7517L28.501 31.7517C28.5919 32.2695 28.9613 32.4561 29.3669 32.4561C29.6573 32.4561 29.9665 32.3473 30.2091 32.1552L30.5176 32.6186C30.1661 32.9134 29.7668 33.0215 29.3308 33.0215C28.4643 33.0215 27.8467 32.4258 27.8467 31.5113ZM36.889 31.512C36.889 31.0065 37.2224 30.5913 37.7673 30.5913C38.2879 30.5913 38.6393 30.9886 38.6393 31.512C38.6393 32.0353 38.2879 32.4327 37.7673 32.4327C37.2224 32.4327 36.889 32.0174 36.889 31.512ZM39.2327 30.0735V31.5113V32.9492H38.6033V32.6C38.4029 32.859 38.1007 33.0215 37.6889 33.0215C36.8772 33.0215 36.2408 32.39 36.2408 31.5113C36.2408 30.6334 36.8772 30.0012 37.6889 30.0012C38.1007 30.0012 38.4029 30.1637 38.6033 30.4226V30.0735H39.2327ZM33.3341 31.5113C33.3341 32.3838 33.9456 33.0215 34.8786 33.0215C35.3146 33.0215 35.6051 32.9251 35.9198 32.6786L35.6176 32.1731C35.3812 32.3418 35.133 32.432 34.8599 32.432C34.3573 32.4258 33.9878 32.065 33.9878 31.5113C33.9878 30.9577 34.3573 30.5969 34.8599 30.5907C35.133 30.5907 35.3812 30.6809 35.6176 30.8496L35.9198 30.3441C35.6051 30.0976 35.3146 30.0012 34.8786 30.0012C33.9456 30.0012 33.3341 30.6389 33.3341 31.5113ZM40.6862 30.4228C40.8498 30.1701 41.0862 30.0014 41.4495 30.0014C41.577 30.0014 41.7586 30.0255 41.898 30.0799L41.7039 30.6693C41.5708 30.6149 41.4377 30.597 41.3101 30.597C40.8984 30.597 40.6925 30.8615 40.6925 31.3373V32.9494H40.0624V30.0737H40.6862V30.4228ZM24.576 30.3021C24.2731 30.1038 23.8558 30.0012 23.3955 30.0012C22.6621 30.0012 22.19 30.3503 22.19 30.9219C22.19 31.3908 22.5415 31.6801 23.1889 31.7703L23.4863 31.8123C23.8315 31.8605 23.9944 31.9507 23.9944 32.1132C23.9944 32.3356 23.7643 32.4623 23.3345 32.4623C22.8985 32.4623 22.5837 32.3239 22.3716 32.1614L22.0749 32.6483C22.4201 32.901 22.8562 33.0215 23.3282 33.0215C24.1643 33.0215 24.6488 32.6303 24.6488 32.0829C24.6488 31.5775 24.2675 31.313 23.6374 31.2228L23.3407 31.1801C23.0683 31.1443 22.8499 31.0906 22.8499 30.8978C22.8499 30.6871 23.0558 30.561 23.401 30.561C23.7705 30.561 24.1282 30.6995 24.3036 30.8076L24.576 30.3021ZM31.9352 30.4228C32.0981 30.1701 32.3345 30.0014 32.6978 30.0014C32.8253 30.0014 33.0069 30.0255 33.1463 30.0799L32.9522 30.6693C32.8191 30.6149 32.686 30.597 32.5584 30.597C32.1466 30.597 31.9408 30.8615 31.9408 31.3373V32.9494H31.3113V30.0737H31.9352V30.4228ZM27.326 30.0735H26.2966V29.201H25.6602V30.0735H25.0731V30.6451H25.6602V31.9569C25.6602 32.6242 25.9209 33.0215 26.6654 33.0215C26.9385 33.0215 27.2532 32.9375 27.4529 32.7991L27.2712 32.2633C27.0834 32.3714 26.8775 32.4258 26.7139 32.4258C26.3992 32.4258 26.2966 32.233 26.2966 31.9445V30.6451H27.326V30.0735ZM17.9144 31.1445V32.9494H17.278V31.349C17.278 30.8615 17.0721 30.5908 16.6423 30.5908C16.2243 30.5908 15.9339 30.856 15.9339 31.3552V32.9494H15.2975V31.349C15.2975 30.8615 15.0861 30.5908 14.6681 30.5908C14.2376 30.5908 13.9589 30.856 13.9589 31.3552V32.9494H13.3232V30.0737H13.9534V30.4283C14.1898 30.0916 14.492 30.0014 14.8012 30.0014C15.2434 30.0014 15.5582 30.1942 15.7578 30.513C16.0247 30.1095 16.4059 29.9952 16.7754 30.0014C17.4783 30.0076 17.9144 30.4648 17.9144 31.1445Z" fill="#231F20"/>
<path d="M33.9074 25.1872H24.3674V8.15625H33.9074V25.1872Z" fill="#FF5F00"/>
<path d="M24.9726 16.6707C24.9726 13.2159 26.6009 10.1384 29.1367 8.1552C27.2824 6.70497 24.9421 5.83938 22.3987 5.83938C16.3775 5.83938 11.4966 10.6886 11.4966 16.6707C11.4966 22.6527 16.3775 27.502 22.3987 27.502C24.9421 27.502 27.2824 26.6364 29.1367 25.1861C26.6009 23.2029 24.9726 20.1255 24.9726 16.6707Z" fill="#EB001B"/>
<path d="M46.7775 16.6707C46.7775 22.6527 41.8966 27.502 35.8754 27.502C33.332 27.502 30.9917 26.6364 29.1367 25.1861C31.6732 23.2029 33.3015 20.1255 33.3015 16.6707C33.3015 13.2159 31.6732 10.1384 29.1367 8.1552C30.9917 6.70497 33.332 5.83938 35.8754 5.83938C41.8966 5.83938 46.7775 10.6886 46.7775 16.6707Z" fill="#F79E1B"/>
</svg>
