<svg width="108" height="88" viewBox="0 0 108 88" fill="none" xmlns="http://www.w3.org/2000/svg">
<g clip-path="url(#clip0_34_3162)">
<path d="M65.9 88H108V48.4H88.8C87.9 48.4 87.1 47.7 87.1 46.7V42.6C87.1 27.5 92.9 19.6 104.3 19.3V0C89.8 0.1 78.6 4.7 71.1 13.5C63.4 22.5 59.5 34.5 59.5 49.3C59.6 62.5 61.7 75.5 65.9 88ZM6.7 88H48.8V48.4H29.3C28.4 48.4 27.6 47.7 27.6 46.7V42.6C27.6 27.5 33.5 19.6 45.2 19.3V0C30.6 0.1 19.4 4.7 11.7 13.5C3.9 22.5 0 34.5 0 49.3C0.1 62.5 2.4 75.6 6.7 88Z" fill="#FFD531"/>
</g>
<defs>
<clipPath id="clip0_34_3162">
<rect width="108" height="88" fill="white"/>
</clipPath>
</defs>
</svg>
