<svg width="57" height="39" viewBox="0 0 57 39" fill="none" xmlns="http://www.w3.org/2000/svg">
<rect x="0.335714" y="0.335714" width="55.7286" height="38.2714" rx="2.35" fill="white" stroke="#F3F3F3" stroke-width="0.671429"/>
<path d="M25.0413 26.7069H21.2864L23.635 13.0762H27.3898L25.0413 26.7069Z" fill="#15195A"/>
<path d="M38.6533 13.4104C37.9126 13.1346 36.7379 12.8301 35.2854 12.8301C31.5772 12.8301 28.966 14.6861 28.95 17.3396C28.9192 19.2974 30.8195 20.3847 32.2409 21.0375C33.6936 21.7046 34.1874 22.1399 34.1874 22.7345C34.1726 23.6477 33.0135 24.0686 31.9324 24.0686C30.4333 24.0686 29.63 23.8516 28.4093 23.3435L27.9149 23.1258L27.3894 26.1855C28.2701 26.5621 29.8926 26.8963 31.5772 26.911C35.5172 26.911 38.0822 25.0837 38.1126 22.256C38.1276 20.7043 37.1241 19.5153 34.9607 18.5438C33.6474 17.9201 32.8431 17.4996 32.8431 16.8614C32.8585 16.2813 33.5234 15.6871 35.0059 15.6871C36.2266 15.658 37.1235 15.9334 37.803 16.209L38.1426 16.3538L38.6533 13.4104V13.4104V13.4104Z" fill="#15195A"/>
<path fill-rule="evenodd" clip-rule="evenodd" d="M45.3748 13.0781H48.2793L51.3086 26.7086H47.8319C47.8319 26.7086 47.4916 25.1425 47.3838 24.6639H42.5628C42.4233 25.0263 41.7747 26.7086 41.7747 26.7086H37.8347L43.4122 14.2091C43.7987 13.3244 44.4792 13.0781 45.3748 13.0781ZM45.1435 18.0668C45.1435 18.0668 43.9535 21.0975 43.6443 21.8805H46.7654C46.611 21.199 45.8999 17.9363 45.8999 17.9363L45.6375 16.7618C45.527 17.0642 45.3672 17.48 45.2594 17.7605C45.1863 17.9506 45.1372 18.0785 45.1435 18.0668Z" fill="#15195A"/>
<path fill-rule="evenodd" clip-rule="evenodd" d="M5.01688 13.0781H11.0583C11.8771 13.1068 12.5416 13.3533 12.7578 14.2239L14.0706 20.4859C14.0708 20.4866 14.071 20.4872 14.0712 20.4878L14.473 22.3729L18.1504 13.0781H22.121L16.2188 26.6944H12.248L8.90125 14.8505C7.74649 14.2169 6.42858 13.7072 4.95508 13.3535L5.01688 13.0781Z" fill="#15195A"/>
</svg>
